<?xml version="1.0" encoding="UTF-8"?><svg xmlns="http://www.w3.org/2000/svg" xmlns:xlink="http://www.w3.org/1999/xlink" fill-opacity="1" color-rendering="auto" color-interpolation="auto" text-rendering="auto" stroke="black" stroke-linecap="square" width="645" stroke-miterlimit="10" shape-rendering="auto" stroke-opacity="1" fill="black" stroke-dasharray="none" font-weight="normal" stroke-width="1" height="546" font-family="'Dialog'" font-style="normal" stroke-linejoin="miter" font-size="12px" stroke-dashoffset="0" image-rendering="auto">
  <!--Generated by ySVG 2.5-->
  <defs id="genericDefs"/>
  <g>
    <g fill="url(#linearGradient1)" text-rendering="geometricPrecision" shape-rendering="geometricPrecision" transform="matrix(1,0,0,1,-266,-134)" stroke="url(#linearGradient1)">
      <path d="M616 352 L776 352 L776 392 L616 392 Z" stroke="none" clip-path="url(#clipPath2)"/>
    </g>
    <g text-rendering="geometricPrecision" stroke-miterlimit="1.45" shape-rendering="geometricPrecision" transform="matrix(1,0,0,1,-266,-134)" stroke-linecap="butt">
      <path fill="none" d="M616 352 L776 352 L776 392 L616 392 Z" clip-path="url(#clipPath2)"/>
      <text x="652.6523" xml:space="preserve" y="376.6553" clip-path="url(#clipPath2)" font-family="sans-serif" stroke="none">Load User Data</text>
    </g>
    <g fill="url(#linearGradient2)" text-rendering="geometricPrecision" shape-rendering="geometricPrecision" transform="matrix(1,0,0,1,-266,-134)" stroke="url(#linearGradient2)">
      <path d="M576 228 L616 248 L576 268 L536 248 Z" stroke="none" clip-path="url(#clipPath2)"/>
    </g>
    <g text-rendering="geometricPrecision" stroke-miterlimit="1.45" shape-rendering="geometricPrecision" transform="matrix(1,0,0,1,-266,-134)" stroke-linecap="butt">
      <path fill="none" d="M576 228 L616 248 L576 268 L536 248 Z" clip-path="url(#clipPath2)"/>
      <text x="564.9961" xml:space="preserve" y="252.6553" clip-path="url(#clipPath2)" font-family="sans-serif" stroke="none">OK?</text>
    </g>
    <g fill="url(#linearGradient3)" text-rendering="geometricPrecision" shape-rendering="geometricPrecision" transform="matrix(1,0,0,1,-266,-134)" stroke="url(#linearGradient3)">
      <rect x="281" y="624.8065" clip-path="url(#clipPath2)" width="160" rx="20" ry="20" height="40" stroke="none"/>
    </g>
    <g text-rendering="geometricPrecision" stroke-miterlimit="1.45" shape-rendering="geometricPrecision" transform="matrix(1,0,0,1,-266,-134)" stroke-linecap="butt">
      <rect x="281" y="624.8065" clip-path="url(#clipPath2)" fill="none" width="160" rx="20" ry="20" height="40"/>
      <text x="322.4043" xml:space="preserve" y="649.4618" clip-path="url(#clipPath2)" font-family="sans-serif" stroke="none">Unauthorized</text>
    </g>
    <g fill="url(#linearGradient4)" text-rendering="geometricPrecision" shape-rendering="geometricPrecision" transform="matrix(1,0,0,1,-266,-134)" stroke="url(#linearGradient4)">
      <path d="M616 418 L776 418 L776 458 L616 458 Z" stroke="none" clip-path="url(#clipPath2)"/>
    </g>
    <g text-rendering="geometricPrecision" stroke-miterlimit="1.45" shape-rendering="geometricPrecision" transform="matrix(1,0,0,1,-266,-134)" stroke-linecap="butt">
      <path fill="none" d="M616 418 L776 418 L776 458 L616 458 Z" clip-path="url(#clipPath2)"/>
      <text x="669.3574" xml:space="preserve" y="442.6553" clip-path="url(#clipPath2)" font-family="sans-serif" stroke="none">Get Roles</text>
    </g>
    <g fill="url(#linearGradient5)" text-rendering="geometricPrecision" shape-rendering="geometricPrecision" transform="matrix(1,0,0,1,-266,-134)" stroke="url(#linearGradient5)">
      <path d="M616 483 L776 483 L776 523 L616 523 Z" stroke="none" clip-path="url(#clipPath2)"/>
    </g>
    <g text-rendering="geometricPrecision" stroke-miterlimit="1.45" shape-rendering="geometricPrecision" transform="matrix(1,0,0,1,-266,-134)" stroke-linecap="butt">
      <path fill="none" d="M616 483 L776 483 L776 523 L616 523 Z" clip-path="url(#clipPath2)"/>
      <text x="658.4736" xml:space="preserve" y="507.6553" clip-path="url(#clipPath2)" font-family="sans-serif" stroke="none">Load Abilities</text>
    </g>
    <g fill="url(#linearGradient6)" text-rendering="geometricPrecision" shape-rendering="geometricPrecision" transform="matrix(1,0,0,1,-266,-134)" stroke="url(#linearGradient6)">
      <rect x="496" y="624.8065" clip-path="url(#clipPath2)" width="160" rx="20" ry="20" height="40" stroke="none"/>
    </g>
    <g text-rendering="geometricPrecision" stroke-miterlimit="1.45" shape-rendering="geometricPrecision" transform="matrix(1,0,0,1,-266,-134)" stroke-linecap="butt">
      <rect x="496" y="624.8065" clip-path="url(#clipPath2)" fill="none" width="160" rx="20" ry="20" height="40"/>
      <text x="525.9551" xml:space="preserve" y="649.4618" clip-path="url(#clipPath2)" font-family="sans-serif" stroke="none">User with abilities</text>
    </g>
    <g fill="url(#linearGradient7)" text-rendering="geometricPrecision" shape-rendering="geometricPrecision" transform="matrix(1,0,0,1,-266,-134)" stroke="url(#linearGradient7)">
      <rect x="401" y="149" clip-path="url(#clipPath2)" width="160" rx="20" ry="20" height="40" stroke="none"/>
    </g>
    <g text-rendering="geometricPrecision" stroke-miterlimit="1.45" shape-rendering="geometricPrecision" transform="matrix(1,0,0,1,-266,-134)" stroke-linecap="butt">
      <rect x="401" y="149" clip-path="url(#clipPath2)" fill="none" width="160" rx="20" ry="20" height="40"/>
      <text x="465.2793" xml:space="preserve" y="173.6553" clip-path="url(#clipPath2)" font-family="sans-serif" stroke="none">Login</text>
    </g>
    <g fill="url(#linearGradient8)" text-rendering="geometricPrecision" shape-rendering="geometricPrecision" transform="matrix(1,0,0,1,-266,-134)" stroke="url(#linearGradient8)">
      <rect x="616" y="149" clip-path="url(#clipPath2)" width="160" rx="20" ry="20" height="40" stroke="none"/>
    </g>
    <g text-rendering="geometricPrecision" stroke-miterlimit="1.45" shape-rendering="geometricPrecision" transform="matrix(1,0,0,1,-266,-134)" stroke-linecap="butt">
      <rect x="616" y="149" clip-path="url(#clipPath2)" fill="none" width="160" rx="20" ry="20" height="40"/>
      <text x="685.4443" xml:space="preserve" y="173.6553" clip-path="url(#clipPath2)" font-family="sans-serif" stroke="none">JWT</text>
    </g>
    <g text-rendering="geometricPrecision" shape-rendering="geometricPrecision" transform="matrix(1.3822,0,0,1.336,564.375,206.1935)">
      <g clip-path="url(#clipPath3)">
        <svg xml:space="preserve" opacity="1" writing-mode="lr-tb" stop-color="rgb(0, 0, 0)" shape-rendering="auto" glyph-orientation-horizontal="0deg" color-profile="auto" lighting-color="rgb(255, 255, 255)" color="rgb(0, 0, 0)" font-weight="400" alignment-baseline="auto" font-style="normal" version="1.1" color-interpolation-filters="linearrgb" text-anchor="start" stroke-linecap="butt" color-interpolation="srgb" font-variant="normal" word-spacing="normal" fill-opacity="1" text-rendering="auto" clip-path="none" text-decoration="none" letter-spacing="normal" viewBox="0 0 40 48" glyph-orientation-vertical="auto" display="inline" font-size-adjust="none" overflow="visible" fill="rgb(0, 0, 0)" font-stretch="normal" stroke-dasharray="none" stroke-miterlimit="4" stop-opacity="1" color-rendering="auto" font-size="12" pointer-events="visiblepainted" mask="none" direction="ltr" baseline-shift="baseline" enable-background="new 0 0 40 48" fill-rule="nonzero" image-rendering="auto" stroke-dashoffset="0" width="40px" marker-end="none" clip="auto" cursor="auto" stroke="none" filter="none" visibility="visible" kerning="auto" stroke-width="1" font-family="&quot;Arial&quot;,&quot;Helvetica&quot;,sans-serif" flood-opacity="1" clip-rule="nonzero" src="none" height="48px" unicode-bidi="normal" stroke-linejoin="miter" stroke-opacity="1" flood-color="rgb(0, 0, 0)" dominant-baseline="auto" marker-start="none" x="0px" marker-mid="none" y="0px">
<defs>
<linearGradient x1="616" gradientUnits="userSpaceOnUse" x2="776" y1="352" y2="392" id="linearGradient1" spreadMethod="reflect">
              <stop stop-opacity="1" stop-color="rgb(232,238,247)" offset="0%"/>
              <stop stop-opacity="1" stop-color="rgb(183,201,227)" offset="100%"/>
            </linearGradient>
            <linearGradient x1="536" gradientUnits="userSpaceOnUse" x2="616" y1="228" y2="268" id="linearGradient2" spreadMethod="reflect">
              <stop stop-opacity="1" stop-color="rgb(232,238,247)" offset="0%"/>
              <stop stop-opacity="1" stop-color="rgb(183,201,227)" offset="100%"/>
            </linearGradient>
            <linearGradient x1="281" gradientUnits="userSpaceOnUse" x2="441" y1="624.8065" y2="664.8065" id="linearGradient3" spreadMethod="reflect">
              <stop stop-opacity="1" stop-color="rgb(232,238,247)" offset="0%"/>
              <stop stop-opacity="1" stop-color="rgb(183,201,227)" offset="100%"/>
            </linearGradient>
            <linearGradient x1="616" gradientUnits="userSpaceOnUse" x2="776" y1="418" y2="458" id="linearGradient4" spreadMethod="reflect">
              <stop stop-opacity="1" stop-color="rgb(232,238,247)" offset="0%"/>
              <stop stop-opacity="1" stop-color="rgb(183,201,227)" offset="100%"/>
            </linearGradient>
            <linearGradient x1="616" gradientUnits="userSpaceOnUse" x2="776" y1="483" y2="523" id="linearGradient5" spreadMethod="reflect">
              <stop stop-opacity="1" stop-color="rgb(232,238,247)" offset="0%"/>
              <stop stop-opacity="1" stop-color="rgb(183,201,227)" offset="100%"/>
            </linearGradient>
            <linearGradient x1="496" gradientUnits="userSpaceOnUse" x2="656" y1="624.8065" y2="664.8065" id="linearGradient6" spreadMethod="reflect">
              <stop stop-opacity="1" stop-color="rgb(232,238,247)" offset="0%"/>
              <stop stop-opacity="1" stop-color="rgb(183,201,227)" offset="100%"/>
            </linearGradient>
            <linearGradient x1="401" gradientUnits="userSpaceOnUse" x2="561" y1="149" y2="189" id="linearGradient7" spreadMethod="reflect">
              <stop stop-opacity="1" stop-color="rgb(232,238,247)" offset="0%"/>
              <stop stop-opacity="1" stop-color="rgb(183,201,227)" offset="100%"/>
            </linearGradient>
            <linearGradient x1="616" gradientUnits="userSpaceOnUse" x2="776" y1="149" y2="189" id="linearGradient8" spreadMethod="reflect">
              <stop stop-opacity="1" stop-color="rgb(232,238,247)" offset="0%"/>
              <stop stop-opacity="1" stop-color="rgb(183,201,227)" offset="100%"/>
            </linearGradient>
            <linearGradient x1="496" gradientUnits="userSpaceOnUse" x2="656" y1="559.8065" y2="599.8065" id="linearGradient9" spreadMethod="reflect">
              <stop stop-opacity="1" stop-color="rgb(232,238,247)" offset="0%"/>
              <stop stop-opacity="1" stop-color="rgb(183,201,227)" offset="100%"/>
            </linearGradient>
            <linearGradient x1="536" gradientUnits="userSpaceOnUse" x2="616" y1="298" y2="338" id="linearGradient10" spreadMethod="reflect">
              <stop stop-opacity="1" stop-color="rgb(232,238,247)" offset="0%"/>
              <stop stop-opacity="1" stop-color="rgb(183,201,227)" offset="100%"/>
            </linearGradient>
            <clipPath clipPathUnits="userSpaceOnUse" id="clipPath1">
              <path d="M0 0 L645 0 L645 546 L0 546 L0 0 Z"/>
            </clipPath>
            <clipPath clipPathUnits="userSpaceOnUse" id="clipPath2">
              <path d="M266 134 L911 134 L911 680 L266 680 L266 134 Z"/>
            </clipPath>
            <clipPath clipPathUnits="userSpaceOnUse" id="clipPath3">
              <path d="M-408.3266 -154.3315 L58.3324 -154.3315 L58.3324 254.3381 L-408.3266 254.3381 L-408.3266 -154.3315 Z"/>
            </clipPath>
            <clipPath clipPathUnits="userSpaceOnUse" id="clipPath4">
              <path d="M-408.3266 -252.3823 L58.3324 -252.3823 L58.3324 156.2873 L-408.3266 156.2873 L-408.3266 -252.3823 Z"/>
            </clipPath>
          </defs>
<linearGradient gradientTransform="matrix(1 0 0 1 -370.2002 -614.5742)" x1="370.2002" x2="409.4502" gradientUnits="userSpaceOnUse" y1="655.0938" y2="655.0938" id="svg1.SVGID_1_">
	<stop offset="0" style="stop-color:#4D4D4D"/>
	<stop offset="0.0558" style="stop-color:#5F5F5F"/>
	<stop offset="0.2103" style="stop-color:#8D8D8D"/>
	<stop offset="0.3479" style="stop-color:#AEAEAE"/>
	<stop offset="0.4623" style="stop-color:#C2C2C2"/>
	<stop offset="0.5394" style="stop-color:#C9C9C9"/>
	<stop offset="0.6247" style="stop-color:#C5C5C5"/>
	<stop offset="0.7072" style="stop-color:#BABABA"/>
	<stop offset="0.7885" style="stop-color:#A6A6A6"/>
	<stop offset="0.869" style="stop-color:#8B8B8B"/>
	<stop offset="0.9484" style="stop-color:#686868"/>
	<stop offset="1" style="stop-color:#4D4D4D"/>
</linearGradient>
<path fill="url(#svg1.SVGID_1_)" d="M19.625,37.613C8.787,37.613,0,35.738,0,33.425v10c0,2.313,8.787,4.188,19.625,4.188  c10.839,0,19.625-1.875,19.625-4.188v-10C39.25,35.738,30.464,37.613,19.625,37.613z"/>
<linearGradient gradientTransform="matrix(1 0 0 1 -370.2002 -614.5742)" x1="370.2002" x2="409.4502" gradientUnits="userSpaceOnUse" y1="649.0938" y2="649.0938" id="svg1.SVGID_2_">
	<stop offset="0" style="stop-color:#B3B3B3"/>
	<stop offset="0.0171" style="stop-color:#B6B6B6"/>
	<stop offset="0.235" style="stop-color:#D7D7D7"/>
	<stop offset="0.4168" style="stop-color:#EBEBEB"/>
	<stop offset="0.5394" style="stop-color:#F2F2F2"/>
	<stop offset="0.6579" style="stop-color:#EEEEEE"/>
	<stop offset="0.7724" style="stop-color:#E3E3E3"/>
	<stop offset="0.8853" style="stop-color:#CFCFCF"/>
	<stop offset="0.9965" style="stop-color:#B4B4B4"/>
	<stop offset="1" style="stop-color:#B3B3B3"/>
</linearGradient>
<path fill="url(#svg1.SVGID_2_)" d="M19.625,37.613c10.839,0,19.625-1.875,19.625-4.188l-1.229-2c0,2.168-8.235,3.927-18.396,3.927  c-9.481,0-17.396-1.959-18.396-3.927l-1.229,2C0,35.738,8.787,37.613,19.625,37.613z"/>
<linearGradient gradientTransform="matrix(1 0 0 1 -370.2002 -614.5742)" x1="371.4297" x2="408.2217" gradientUnits="userSpaceOnUse" y1="646" y2="646" id="svg1.SVGID_3_">
	<stop offset="0" style="stop-color:#C9C9C9"/>
	<stop offset="1" style="stop-color:#808080"/>
</linearGradient>
<ellipse rx="18.396" fill="url(#svg1.SVGID_3_)" ry="3.926" cx="19.625" cy="31.425"/>
<linearGradient gradientTransform="matrix(1 0 0 1 -370.2002 -614.5742)" x1="370.2002" x2="409.4502" gradientUnits="userSpaceOnUse" y1="641.0938" y2="641.0938" id="svg1.SVGID_4_">
	<stop offset="0" style="stop-color:#4D4D4D"/>
	<stop offset="0.0558" style="stop-color:#5F5F5F"/>
	<stop offset="0.2103" style="stop-color:#8D8D8D"/>
	<stop offset="0.3479" style="stop-color:#AEAEAE"/>
	<stop offset="0.4623" style="stop-color:#C2C2C2"/>
	<stop offset="0.5394" style="stop-color:#C9C9C9"/>
	<stop offset="0.6247" style="stop-color:#C5C5C5"/>
	<stop offset="0.7072" style="stop-color:#BABABA"/>
	<stop offset="0.7885" style="stop-color:#A6A6A6"/>
	<stop offset="0.869" style="stop-color:#8B8B8B"/>
	<stop offset="0.9484" style="stop-color:#686868"/>
	<stop offset="1" style="stop-color:#4D4D4D"/>
</linearGradient>
<path fill="url(#svg1.SVGID_4_)" d="M19.625,23.613C8.787,23.613,0,21.738,0,19.425v10c0,2.313,8.787,4.188,19.625,4.188  c10.839,0,19.625-1.875,19.625-4.188v-10C39.25,21.738,30.464,23.613,19.625,23.613z"/>
<linearGradient gradientTransform="matrix(1 0 0 1 -370.2002 -614.5742)" x1="370.2002" x2="409.4502" gradientUnits="userSpaceOnUse" y1="635.0938" y2="635.0938" id="svg1.SVGID_5_">
	<stop offset="0" style="stop-color:#B3B3B3"/>
	<stop offset="0.0171" style="stop-color:#B6B6B6"/>
	<stop offset="0.235" style="stop-color:#D7D7D7"/>
	<stop offset="0.4168" style="stop-color:#EBEBEB"/>
	<stop offset="0.5394" style="stop-color:#F2F2F2"/>
	<stop offset="0.6579" style="stop-color:#EEEEEE"/>
	<stop offset="0.7724" style="stop-color:#E3E3E3"/>
	<stop offset="0.8853" style="stop-color:#CFCFCF"/>
	<stop offset="0.9965" style="stop-color:#B4B4B4"/>
	<stop offset="1" style="stop-color:#B3B3B3"/>
</linearGradient>
<path fill="url(#svg1.SVGID_5_)" d="M19.625,23.613c10.839,0,19.625-1.875,19.625-4.188l-1.229-2c0,2.168-8.235,3.926-18.396,3.926  c-9.481,0-17.396-1.959-18.396-3.926l-1.229,2C0,21.738,8.787,23.613,19.625,23.613z"/>
<linearGradient gradientTransform="matrix(1 0 0 1 -370.2002 -614.5742)" x1="371.4297" x2="408.2217" gradientUnits="userSpaceOnUse" y1="632" y2="632" id="svg1.SVGID_6_">
	<stop offset="0" style="stop-color:#C9C9C9"/>
	<stop offset="1" style="stop-color:#808080"/>
</linearGradient>
<ellipse rx="18.396" fill="url(#svg1.SVGID_6_)" ry="3.926" cx="19.625" cy="17.426"/>
<linearGradient gradientTransform="matrix(1 0 0 1 -370.2002 -614.5742)" x1="370.2002" x2="409.4502" gradientUnits="userSpaceOnUse" y1="627.5938" y2="627.5938" id="svg1.SVGID_7_">
	<stop offset="0" style="stop-color:#4D4D4D"/>
	<stop offset="0.0558" style="stop-color:#5F5F5F"/>
	<stop offset="0.2103" style="stop-color:#8D8D8D"/>
	<stop offset="0.3479" style="stop-color:#AEAEAE"/>
	<stop offset="0.4623" style="stop-color:#C2C2C2"/>
	<stop offset="0.5394" style="stop-color:#C9C9C9"/>
	<stop offset="0.6247" style="stop-color:#C5C5C5"/>
	<stop offset="0.7072" style="stop-color:#BABABA"/>
	<stop offset="0.7885" style="stop-color:#A6A6A6"/>
	<stop offset="0.869" style="stop-color:#8B8B8B"/>
	<stop offset="0.9484" style="stop-color:#686868"/>
	<stop offset="1" style="stop-color:#4D4D4D"/>
</linearGradient>
<path fill="url(#svg1.SVGID_7_)" d="M19.625,10.113C8.787,10.113,0,8.238,0,5.925v10c0,2.313,8.787,4.188,19.625,4.188  c10.839,0,19.625-1.875,19.625-4.188v-10C39.25,8.238,30.464,10.113,19.625,10.113z"/>
<linearGradient gradientTransform="matrix(1 0 0 1 -370.2002 -614.5742)" x1="370.2002" x2="409.4502" gradientUnits="userSpaceOnUse" y1="621.5938" y2="621.5938" id="svg1.SVGID_8_">
	<stop offset="0" style="stop-color:#B3B3B3"/>
	<stop offset="0.0171" style="stop-color:#B6B6B6"/>
	<stop offset="0.235" style="stop-color:#D7D7D7"/>
	<stop offset="0.4168" style="stop-color:#EBEBEB"/>
	<stop offset="0.5394" style="stop-color:#F2F2F2"/>
	<stop offset="0.6579" style="stop-color:#EEEEEE"/>
	<stop offset="0.7724" style="stop-color:#E3E3E3"/>
	<stop offset="0.8853" style="stop-color:#CFCFCF"/>
	<stop offset="0.9965" style="stop-color:#B4B4B4"/>
	<stop offset="1" style="stop-color:#B3B3B3"/>
</linearGradient>
<path fill="url(#svg1.SVGID_8_)" d="M19.625,10.113c10.839,0,19.625-1.875,19.625-4.188l-1.229-2c0,2.168-8.235,3.926-18.396,3.926  c-9.481,0-17.396-1.959-18.396-3.926L0,5.925C0,8.238,8.787,10.113,19.625,10.113z"/>
<linearGradient gradientTransform="matrix(1 0 0 1 -370.2002 -614.5742)" x1="371.4297" x2="408.2217" gradientUnits="userSpaceOnUse" y1="618.5" y2="618.5" id="svg1.SVGID_9_">
	<stop offset="0" style="stop-color:#C9C9C9"/>
	<stop offset="1" style="stop-color:#808080"/>
</linearGradient>
<ellipse rx="18.396" fill="url(#svg1.SVGID_9_)" ry="3.926" cx="19.625" cy="3.926"/>
<path fill="#FFFFFF" d="M31.291,46.792c0,0-4.313,0.578-7.249,0.694  C20.917,47.613,15,47.613,15,47.613l-2.443-10.279l-0.119-2.283l-1.231-1.842L9.789,23.024l-0.082-0.119L9.3,20.715l-1.45-1.44  L5.329,8.793c0,0,5.296,0.882,7.234,1.07s8.375,0.25,8.375,0.25l3,9.875l-0.25,1.313l1.063,2.168l2.312,9.644l-0.375,1.875  l1.627,2.193L31.291,46.792z" enable-background="new    " opacity="0.24"/>
</svg>
      </g>
    </g>
    <g text-rendering="geometricPrecision" stroke-miterlimit="1.45" shape-rendering="geometricPrecision" font-family="sans-serif" transform="matrix(1,0,0,1,-266,-134)" stroke-linecap="butt">
      <text x="844.3779" xml:space="preserve" y="422.6327" clip-path="url(#clipPath2)" stroke="none">User</text>
    </g>
    <g text-rendering="geometricPrecision" stroke-miterlimit="1.45" shape-rendering="geometricPrecision" font-family="sans-serif" transform="matrix(1,0,0,1,-266,-134)" stroke-linecap="butt">
      <text x="828.6367" xml:space="preserve" y="438.9745" clip-path="url(#clipPath2)" stroke="none">with Roles</text>
    </g>
    <g text-rendering="geometricPrecision" shape-rendering="geometricPrecision" transform="matrix(1.3822,0,0,1.336,564.375,337.1935)">
      <g clip-path="url(#clipPath4)">
        <svg xml:space="preserve" opacity="1" writing-mode="lr-tb" stop-color="rgb(0, 0, 0)" shape-rendering="auto" glyph-orientation-horizontal="0deg" color-profile="auto" lighting-color="rgb(255, 255, 255)" color="rgb(0, 0, 0)" font-weight="400" alignment-baseline="auto" font-style="normal" version="1.1" color-interpolation-filters="linearrgb" text-anchor="start" stroke-linecap="butt" color-interpolation="srgb" font-variant="normal" word-spacing="normal" fill-opacity="1" text-rendering="auto" clip-path="none" text-decoration="none" letter-spacing="normal" viewBox="0 0 40 48" glyph-orientation-vertical="auto" display="inline" font-size-adjust="none" overflow="visible" fill="rgb(0, 0, 0)" font-stretch="normal" stroke-dasharray="none" stroke-miterlimit="4" stop-opacity="1" color-rendering="auto" font-size="12" pointer-events="visiblepainted" mask="none" direction="ltr" baseline-shift="baseline" enable-background="new 0 0 40 48" fill-rule="nonzero" image-rendering="auto" stroke-dashoffset="0" width="40px" marker-end="none" clip="auto" cursor="auto" stroke="none" filter="none" visibility="visible" kerning="auto" stroke-width="1" font-family="&quot;Arial&quot;,&quot;Helvetica&quot;,sans-serif" flood-opacity="1" clip-rule="nonzero" src="none" height="48px" unicode-bidi="normal" stroke-linejoin="miter" stroke-opacity="1" flood-color="rgb(0, 0, 0)" dominant-baseline="auto" marker-start="none" x="0px" marker-mid="none" y="0px">
<defs>
</defs>
<linearGradient gradientTransform="matrix(1 0 0 1 -370.2002 -614.5742)" x1="370.2002" x2="409.4502" gradientUnits="userSpaceOnUse" y1="655.0938" y2="655.0938" id="svg2.SVGID_1_">
	<stop offset="0" style="stop-color:#4D4D4D"/>
	<stop offset="0.0558" style="stop-color:#5F5F5F"/>
	<stop offset="0.2103" style="stop-color:#8D8D8D"/>
	<stop offset="0.3479" style="stop-color:#AEAEAE"/>
	<stop offset="0.4623" style="stop-color:#C2C2C2"/>
	<stop offset="0.5394" style="stop-color:#C9C9C9"/>
	<stop offset="0.6247" style="stop-color:#C5C5C5"/>
	<stop offset="0.7072" style="stop-color:#BABABA"/>
	<stop offset="0.7885" style="stop-color:#A6A6A6"/>
	<stop offset="0.869" style="stop-color:#8B8B8B"/>
	<stop offset="0.9484" style="stop-color:#686868"/>
	<stop offset="1" style="stop-color:#4D4D4D"/>
</linearGradient>
<path fill="url(#svg2.SVGID_1_)" d="M19.625,37.613C8.787,37.613,0,35.738,0,33.425v10c0,2.313,8.787,4.188,19.625,4.188  c10.839,0,19.625-1.875,19.625-4.188v-10C39.25,35.738,30.464,37.613,19.625,37.613z"/>
<linearGradient gradientTransform="matrix(1 0 0 1 -370.2002 -614.5742)" x1="370.2002" x2="409.4502" gradientUnits="userSpaceOnUse" y1="649.0938" y2="649.0938" id="svg2.SVGID_2_">
	<stop offset="0" style="stop-color:#B3B3B3"/>
	<stop offset="0.0171" style="stop-color:#B6B6B6"/>
	<stop offset="0.235" style="stop-color:#D7D7D7"/>
	<stop offset="0.4168" style="stop-color:#EBEBEB"/>
	<stop offset="0.5394" style="stop-color:#F2F2F2"/>
	<stop offset="0.6579" style="stop-color:#EEEEEE"/>
	<stop offset="0.7724" style="stop-color:#E3E3E3"/>
	<stop offset="0.8853" style="stop-color:#CFCFCF"/>
	<stop offset="0.9965" style="stop-color:#B4B4B4"/>
	<stop offset="1" style="stop-color:#B3B3B3"/>
</linearGradient>
<path fill="url(#svg2.SVGID_2_)" d="M19.625,37.613c10.839,0,19.625-1.875,19.625-4.188l-1.229-2c0,2.168-8.235,3.927-18.396,3.927  c-9.481,0-17.396-1.959-18.396-3.927l-1.229,2C0,35.738,8.787,37.613,19.625,37.613z"/>
<linearGradient gradientTransform="matrix(1 0 0 1 -370.2002 -614.5742)" x1="371.4297" x2="408.2217" gradientUnits="userSpaceOnUse" y1="646" y2="646" id="svg2.SVGID_3_">
	<stop offset="0" style="stop-color:#C9C9C9"/>
	<stop offset="1" style="stop-color:#808080"/>
</linearGradient>
<ellipse rx="18.396" fill="url(#svg2.SVGID_3_)" ry="3.926" cx="19.625" cy="31.425"/>
<linearGradient gradientTransform="matrix(1 0 0 1 -370.2002 -614.5742)" x1="370.2002" x2="409.4502" gradientUnits="userSpaceOnUse" y1="641.0938" y2="641.0938" id="svg2.SVGID_4_">
	<stop offset="0" style="stop-color:#4D4D4D"/>
	<stop offset="0.0558" style="stop-color:#5F5F5F"/>
	<stop offset="0.2103" style="stop-color:#8D8D8D"/>
	<stop offset="0.3479" style="stop-color:#AEAEAE"/>
	<stop offset="0.4623" style="stop-color:#C2C2C2"/>
	<stop offset="0.5394" style="stop-color:#C9C9C9"/>
	<stop offset="0.6247" style="stop-color:#C5C5C5"/>
	<stop offset="0.7072" style="stop-color:#BABABA"/>
	<stop offset="0.7885" style="stop-color:#A6A6A6"/>
	<stop offset="0.869" style="stop-color:#8B8B8B"/>
	<stop offset="0.9484" style="stop-color:#686868"/>
	<stop offset="1" style="stop-color:#4D4D4D"/>
</linearGradient>
<path fill="url(#svg2.SVGID_4_)" d="M19.625,23.613C8.787,23.613,0,21.738,0,19.425v10c0,2.313,8.787,4.188,19.625,4.188  c10.839,0,19.625-1.875,19.625-4.188v-10C39.25,21.738,30.464,23.613,19.625,23.613z"/>
<linearGradient gradientTransform="matrix(1 0 0 1 -370.2002 -614.5742)" x1="370.2002" x2="409.4502" gradientUnits="userSpaceOnUse" y1="635.0938" y2="635.0938" id="svg2.SVGID_5_">
	<stop offset="0" style="stop-color:#B3B3B3"/>
	<stop offset="0.0171" style="stop-color:#B6B6B6"/>
	<stop offset="0.235" style="stop-color:#D7D7D7"/>
	<stop offset="0.4168" style="stop-color:#EBEBEB"/>
	<stop offset="0.5394" style="stop-color:#F2F2F2"/>
	<stop offset="0.6579" style="stop-color:#EEEEEE"/>
	<stop offset="0.7724" style="stop-color:#E3E3E3"/>
	<stop offset="0.8853" style="stop-color:#CFCFCF"/>
	<stop offset="0.9965" style="stop-color:#B4B4B4"/>
	<stop offset="1" style="stop-color:#B3B3B3"/>
</linearGradient>
<path fill="url(#svg2.SVGID_5_)" d="M19.625,23.613c10.839,0,19.625-1.875,19.625-4.188l-1.229-2c0,2.168-8.235,3.926-18.396,3.926  c-9.481,0-17.396-1.959-18.396-3.926l-1.229,2C0,21.738,8.787,23.613,19.625,23.613z"/>
<linearGradient gradientTransform="matrix(1 0 0 1 -370.2002 -614.5742)" x1="371.4297" x2="408.2217" gradientUnits="userSpaceOnUse" y1="632" y2="632" id="svg2.SVGID_6_">
	<stop offset="0" style="stop-color:#C9C9C9"/>
	<stop offset="1" style="stop-color:#808080"/>
</linearGradient>
<ellipse rx="18.396" fill="url(#svg2.SVGID_6_)" ry="3.926" cx="19.625" cy="17.426"/>
<linearGradient gradientTransform="matrix(1 0 0 1 -370.2002 -614.5742)" x1="370.2002" x2="409.4502" gradientUnits="userSpaceOnUse" y1="627.5938" y2="627.5938" id="svg2.SVGID_7_">
	<stop offset="0" style="stop-color:#4D4D4D"/>
	<stop offset="0.0558" style="stop-color:#5F5F5F"/>
	<stop offset="0.2103" style="stop-color:#8D8D8D"/>
	<stop offset="0.3479" style="stop-color:#AEAEAE"/>
	<stop offset="0.4623" style="stop-color:#C2C2C2"/>
	<stop offset="0.5394" style="stop-color:#C9C9C9"/>
	<stop offset="0.6247" style="stop-color:#C5C5C5"/>
	<stop offset="0.7072" style="stop-color:#BABABA"/>
	<stop offset="0.7885" style="stop-color:#A6A6A6"/>
	<stop offset="0.869" style="stop-color:#8B8B8B"/>
	<stop offset="0.9484" style="stop-color:#686868"/>
	<stop offset="1" style="stop-color:#4D4D4D"/>
</linearGradient>
<path fill="url(#svg2.SVGID_7_)" d="M19.625,10.113C8.787,10.113,0,8.238,0,5.925v10c0,2.313,8.787,4.188,19.625,4.188  c10.839,0,19.625-1.875,19.625-4.188v-10C39.25,8.238,30.464,10.113,19.625,10.113z"/>
<linearGradient gradientTransform="matrix(1 0 0 1 -370.2002 -614.5742)" x1="370.2002" x2="409.4502" gradientUnits="userSpaceOnUse" y1="621.5938" y2="621.5938" id="svg2.SVGID_8_">
	<stop offset="0" style="stop-color:#B3B3B3"/>
	<stop offset="0.0171" style="stop-color:#B6B6B6"/>
	<stop offset="0.235" style="stop-color:#D7D7D7"/>
	<stop offset="0.4168" style="stop-color:#EBEBEB"/>
	<stop offset="0.5394" style="stop-color:#F2F2F2"/>
	<stop offset="0.6579" style="stop-color:#EEEEEE"/>
	<stop offset="0.7724" style="stop-color:#E3E3E3"/>
	<stop offset="0.8853" style="stop-color:#CFCFCF"/>
	<stop offset="0.9965" style="stop-color:#B4B4B4"/>
	<stop offset="1" style="stop-color:#B3B3B3"/>
</linearGradient>
<path fill="url(#svg2.SVGID_8_)" d="M19.625,10.113c10.839,0,19.625-1.875,19.625-4.188l-1.229-2c0,2.168-8.235,3.926-18.396,3.926  c-9.481,0-17.396-1.959-18.396-3.926L0,5.925C0,8.238,8.787,10.113,19.625,10.113z"/>
<linearGradient gradientTransform="matrix(1 0 0 1 -370.2002 -614.5742)" x1="371.4297" x2="408.2217" gradientUnits="userSpaceOnUse" y1="618.5" y2="618.5" id="svg2.SVGID_9_">
	<stop offset="0" style="stop-color:#C9C9C9"/>
	<stop offset="1" style="stop-color:#808080"/>
</linearGradient>
<ellipse rx="18.396" fill="url(#svg2.SVGID_9_)" ry="3.926" cx="19.625" cy="3.926"/>
<path fill="#FFFFFF" d="M31.291,46.792c0,0-4.313,0.578-7.249,0.694  C20.917,47.613,15,47.613,15,47.613l-2.443-10.279l-0.119-2.283l-1.231-1.842L9.789,23.024l-0.082-0.119L9.3,20.715l-1.45-1.44  L5.329,8.793c0,0,5.296,0.882,7.234,1.07s8.375,0.25,8.375,0.25l3,9.875l-0.25,1.313l1.063,2.168l2.312,9.644l-0.375,1.875  l1.627,2.193L31.291,46.792z" enable-background="new    " opacity="0.24"/>
</svg>
      </g>
    </g>
    <g text-rendering="geometricPrecision" stroke-miterlimit="1.45" shape-rendering="geometricPrecision" font-family="sans-serif" transform="matrix(1,0,0,1,-266,-134)" stroke-linecap="butt">
      <text x="842.333" xml:space="preserve" y="553.6327" clip-path="url(#clipPath2)" stroke="none">Roles</text>
      <text x="821.667" xml:space="preserve" y="569.9745" clip-path="url(#clipPath2)" stroke="none">with Abilities</text>
    </g>
    <g fill="url(#linearGradient9)" text-rendering="geometricPrecision" shape-rendering="geometricPrecision" transform="matrix(1,0,0,1,-266,-134)" stroke="url(#linearGradient9)">
      <path d="M496 559.8065 L656 559.8065 L656 599.8065 L496 599.8065 Z" stroke="none" clip-path="url(#clipPath2)"/>
    </g>
    <g text-rendering="geometricPrecision" stroke-miterlimit="1.45" shape-rendering="geometricPrecision" transform="matrix(1,0,0,1,-266,-134)" stroke-linecap="butt">
      <path fill="none" d="M496 559.8065 L656 559.8065 L656 599.8065 L496 599.8065 Z" clip-path="url(#clipPath2)"/>
      <text x="558.8701" xml:space="preserve" y="584.4618" clip-path="url(#clipPath2)" font-family="sans-serif" stroke="none">Cache</text>
    </g>
    <g fill="url(#linearGradient10)" text-rendering="geometricPrecision" shape-rendering="geometricPrecision" transform="matrix(1,0,0,1,-266,-134)" stroke="url(#linearGradient10)">
      <path d="M576 298 L616 318 L576 338 L536 318 Z" stroke="none" clip-path="url(#clipPath2)"/>
    </g>
    <g text-rendering="geometricPrecision" stroke-miterlimit="1.45" shape-rendering="geometricPrecision" transform="matrix(1,0,0,1,-266,-134)" stroke-linecap="butt">
      <path fill="none" d="M576 298 L616 318 L576 338 L536 318 Z" clip-path="url(#clipPath2)"/>
      <text x="552.5742" xml:space="preserve" y="322.6553" clip-path="url(#clipPath2)" font-family="sans-serif" stroke="none">Cached?</text>
    </g>
    <g text-rendering="geometricPrecision" stroke-miterlimit="1.45" shape-rendering="geometricPrecision" transform="matrix(1,0,0,1,-266,-134)" stroke-linecap="butt">
      <path fill="none" d="M535.9762 248 L361 248 L361 616.8015" clip-path="url(#clipPath2)"/>
      <path d="M361 624.8015 L366 612.8015 L361 615.8015 L356 612.8015 Z" clip-path="url(#clipPath2)" stroke="none"/>
      <text x="512.623" xml:space="preserve" y="244.4844" clip-path="url(#clipPath2)" font-family="sans-serif" stroke="none">No</text>
      <text x="517.6943" xml:space="preserve" y="260.8262" clip-path="url(#clipPath2)" font-family="sans-serif" stroke="none">  </text>
      <path fill="none" d="M696 392.0127 L696 410.0153" clip-path="url(#clipPath2)"/>
      <path d="M696 418.0153 L701 406.0153 L696 409.0153 L691 406.0153 Z" clip-path="url(#clipPath2)" stroke="none"/>
      <path fill="none" d="M696 458.0269 L696 475.0168" clip-path="url(#clipPath2)"/>
      <path d="M696 483.0168 L701 471.0168 L696 474.0168 L691 471.0168 Z" clip-path="url(#clipPath2)" stroke="none"/>
      <path fill="none" d="M505.0515 189.0007 L554.8486 230.4109" clip-path="url(#clipPath2)"/>
      <path d="M560.9996 235.526 L554.97 224.009 L554.0797 229.7715 L548.5761 231.6978 Z" clip-path="url(#clipPath2)" stroke="none"/>
      <path fill="none" d="M665.6191 189.0007 L599.9451 232.2362" clip-path="url(#clipPath2)"/>
      <path d="M593.2631 236.6351 L606.0354 234.213 L600.7803 231.6863 L600.5367 225.8604 Z" clip-path="url(#clipPath2)" stroke="none"/>
      <path fill="none" d="M857.5 403.8225 L857.5 463.1838" clip-path="url(#clipPath2)"/>
      <path d="M857.5 471.1838 L862.5 459.1838 L857.5 462.1838 L852.5 459.1838 Z" clip-path="url(#clipPath2)" stroke="none"/>
      <path fill="none" d="M664.7402 523.0079 L614.0007 555.4839" clip-path="url(#clipPath2)"/>
      <path d="M607.2628 559.7966 L620.0652 557.5388 L614.843 554.9448 L614.6743 549.1163 Z" clip-path="url(#clipPath2)" stroke="none"/>
      <path fill="none" d="M576 599.8334 L576 616.8233" clip-path="url(#clipPath2)"/>
      <path d="M576 624.8233 L581 612.8233 L576 615.8233 L571 612.8233 Z" clip-path="url(#clipPath2)" stroke="none"/>
      <path fill="none" d="M576 267.9668 L576 289.9902" clip-path="url(#clipPath2)"/>
      <path d="M576 297.9902 L581 285.9902 L576 288.9902 L571 285.9902 Z" clip-path="url(#clipPath2)" stroke="none"/>
      <text x="536.3467" xml:space="preserve" y="288.1504" clip-path="url(#clipPath2)" font-family="sans-serif" stroke="none">Yes</text>
      <path fill="none" d="M576 337.9742 L576 551.8211" clip-path="url(#clipPath2)"/>
      <path d="M576 559.8211 L581 547.8211 L576 550.8211 L571 547.8211 Z" clip-path="url(#clipPath2)" stroke="none"/>
      <text x="536.3467" xml:space="preserve" y="357.8262" clip-path="url(#clipPath2)" font-family="sans-serif" stroke="none">Yes</text>
      <path fill="none" d="M615.9902 318 L696 318 L696 343.9873" clip-path="url(#clipPath2)"/>
      <path d="M696 351.9873 L701 339.9873 L696 342.9873 L691 339.9873 Z" clip-path="url(#clipPath2)" stroke="none"/>
      <text x="623" xml:space="preserve" y="314.4844" clip-path="url(#clipPath2)" font-family="sans-serif" stroke="none">No</text>
      <text x="624.9541" xml:space="preserve" y="330.8262" clip-path="url(#clipPath2)" font-family="sans-serif" stroke="none">    </text>
    </g>
  </g>
</svg>
